<svg viewBox="0 0 636 300" xmlns="http://www.w3.org/2000/svg" xmlns:xlink="http://www.w3.org/1999/xlink" id="Layer_1" overflow="hidden"><g><path d="M50.03 252.83 585.98 252.83C587.49 252.83 588.91 253.82 589.2 255.29 589.57 257.18 587.93 258.83 585.87 258.83L50.27 258.83C48.76 258.83 47.34 257.84 47.05 256.37 46.68 254.48 48.32 252.83 50.38 252.83" fill="#C8C8C8"/><g><linearGradient x1="207.735" y1="132.81" x2="207.735" y2="186.83" gradientUnits="userSpaceOnUse" id="SVGID_1_" gradientTransform="matrix(1 0 0 -1 0 300)"><stop offset="0.0994" stop-color="#E6E6E6"/><stop offset="0.9511" stop-color="#FFFFFF"/></linearGradient><rect x="131.46" y="101.5" width="101.87" height="146.85" fill="#E6E6E6"/><rect x="132.67" y="96.39" width="98.71" height="16.91" fill="#8FC3EC"/><path d="M180.8 113.17 234.67 167.19 234.67 113.17Z" fill="url(#SVGID_1_)"/><path d="M164.08 96.39 180.93 113.3 232.83 113.3 232.83 96.39Z" fill="#B5D5EA"/><g><circle cx="182.04" cy="170.32" r="31.46" fill="#3097D8"/><g><path d="M179.62 179.55C178.05 180.29 176.26 180.66 174.25 180.66 172.81 180.66 171.51 180.41 170.34 179.9 169.17 179.39 168.17 178.69 167.34 177.79 166.51 176.89 165.87 175.82 165.43 174.59 164.99 173.36 164.76 172 164.76 170.54 164.76 169 165 167.57 165.48 166.24 165.96 164.91 166.64 163.76 167.53 162.78 168.42 161.8 169.49 161.03 170.76 160.48 172.03 159.93 173.44 159.64 175.01 159.64 176.74 159.64 178.28 159.9 179.65 160.43L179.65 162.44C178.19 161.71 176.64 161.35 174.99 161.35 173.68 161.35 172.51 161.58 171.49 162.03 170.47 162.48 169.61 163.11 168.91 163.92 168.21 164.73 167.68 165.68 167.31 166.78 166.94 167.88 166.76 169.08 166.76 170.39 166.76 171.56 166.93 172.67 167.26 173.7 167.59 174.74 168.08 175.64 168.73 176.41 169.38 177.18 170.18 177.8 171.15 178.25 172.12 178.7 173.23 178.93 174.51 178.93 176.47 178.93 178.19 178.52 179.67 177.7L179.67 179.55 179.62 179.55Z" fill="#FFFFFF"/><path d="M197.46 167.04 193.69 167.04 192.7 171.62 196.71 171.62 196.4 172.92 192.44 172.92 191.21 178.56 189.75 178.56 190.97 172.92 187.3 172.92 186.09 178.56 184.63 178.56 185.84 172.92 181.98 172.92 182.25 171.62 186.12 171.62 187.08 167.04 183.04 167.04 183.32 165.74 187.35 165.74 188.57 159.98 190.03 159.98 188.81 165.74 192.5 165.74 193.73 159.98 195.18 159.98 193.95 165.74 197.76 165.74 197.46 167.04ZM188.56 167.04 187.55 171.62 191.25 171.62 192.24 167.04 188.56 167.04Z" fill="#FFFFFF"/></g></g><g><path d="M234.36 88.83 130.4 88.83C127.7 88.83 125.5 91.02 125.5 93.73L125.5 249.67C125.5 252.37 127.69 254.57 130.4 254.57L234.37 254.57C237.07 254.57 239.27 252.38 239.27 249.67L239.27 93.73C239.26 91.03 237.07 88.83 234.36 88.83ZM231.8 244.75C231.8 245.84 230.92 246.72 229.83 246.72L135.18 246.72C134.09 246.72 133.21 245.84 133.21 244.75L133.21 98.79C133.21 97.7 134.09 96.82 135.18 96.82L229.83 96.82C230.92 96.82 231.8 97.7 231.8 98.79L231.8 244.75 231.8 244.75Z" fill="#444444"/><rect x="127.31" y="170.09" width="3.94" height="3.94" fill="#737373"/></g></g><g><linearGradient x1="495.225" y1="130.21" x2="495.225" y2="233" gradientUnits="userSpaceOnUse" id="SVGID_2_" gradientTransform="matrix(1 0 0 -1 0 300)"><stop offset="0.0994" stop-color="#E6E6E6"/><stop offset="0.9511" stop-color="#FFFFFF"/></linearGradient><path d="M545.96 47.5 268.26 47.5 268.26 229.29 545.96 229.29 545.96 47.5Z" fill="#E6E6E6"/><path d="M545.96 47.5 268.26 47.5 268.26 69.83 545.96 69.83 545.96 47.5Z" fill="#8FC3EC"/><path d="M547.76 67 442.69 67 547.76 169.79 547.76 67Z" fill="url(#SVGID_2_)"/><path d="M423.56 48.29 445.59 69.83 545.96 69.83 545.96 48.29Z" fill="#B5D5EA"/><g><circle cx="407.91" cy="136.74" r="53.24" fill="#3097D8"/><g><path d="M403.82 152.36C401.16 153.61 398.13 154.23 394.73 154.23 392.3 154.23 390.09 153.8 388.11 152.95 386.13 152.09 384.44 150.91 383.04 149.39 381.64 147.87 380.56 146.06 379.8 143.97 379.04 141.87 378.66 139.59 378.66 137.11 378.66 134.5 379.06 132.08 379.87 129.83 380.68 127.58 381.83 125.63 383.34 123.98 384.84 122.32 386.66 121.02 388.8 120.08 390.94 119.14 393.33 118.66 395.99 118.66 398.92 118.66 401.53 119.11 403.84 120L403.84 123.41C401.38 122.18 398.75 121.56 395.95 121.56 393.73 121.56 391.75 121.94 390.02 122.71 388.29 123.48 386.84 124.55 385.65 125.91 384.47 127.28 383.56 128.89 382.94 130.76 382.32 132.62 382 134.66 382 136.87 382 138.85 382.28 140.72 382.84 142.47 383.4 144.22 384.23 145.75 385.32 147.06 386.42 148.37 387.78 149.41 389.41 150.18 391.04 150.95 392.94 151.33 395.1 151.33 398.41 151.33 401.32 150.63 403.83 149.24L403.83 152.36 403.82 152.36Z" fill="#FFFFFF"/><path d="M434 131.18 427.62 131.18 425.94 138.93 432.73 138.93 432.2 141.14 425.51 141.14 423.42 150.69 420.95 150.69 423.01 141.14 416.8 141.14 414.76 150.69 412.29 150.69 414.33 141.14 407.8 141.14 408.26 138.93 414.81 138.93 416.44 131.18 409.6 131.18 410.08 128.97 416.89 128.97 418.95 119.23 421.42 119.23 419.36 128.97 425.6 128.97 427.69 119.23 430.14 119.23 428.05 128.97 434.5 128.97 434 131.18ZM418.94 131.18 417.24 138.93 423.5 138.93 425.18 131.18 418.94 131.18Z" fill="#FFFFFF"/></g></g><g><path d="M544.17 42.07 269.27 42.07C263.28 42.07 258.42 46.93 258.42 52.92L258.42 239.72C258.42 240.37 258.49 241 258.6 241.62L554.85 241.62C554.96 241 555.03 240.37 555.03 239.72L555.03 52.92C555.02 46.93 550.17 42.07 544.17 42.07ZM543.75 206.52C543.75 209.06 541.69 211.12 539.15 211.12L274.5 211.12C271.96 211.12 269.9 209.06 269.9 206.52L269.9 58.94C269.9 56.4 271.96 54.34 274.5 54.34L539.15 54.34C541.69 54.34 543.75 56.4 543.75 58.94L543.75 206.52Z" fill="#505050"/><circle cx="406.85" cy="48.37" r="3.28" fill="#737373"/><path d="M578.34 246.59 234.7 246.59C233.48 246.59 232.5 245.6 232.5 244.39L232.5 241.17C232.5 239.95 233.49 238.97 234.7 238.97L578.34 238.97C579.56 238.97 580.54 239.96 580.54 241.17L580.54 244.39C580.55 245.6 579.56 246.59 578.34 246.59Z" fill="#444444"/><path d="M233.08 246.18 256.2 252.63C258.01 253.14 259.88 253.39 261.77 253.39L557.56 253.39C559.5 253.39 561.42 253.04 563.23 252.35L578.34 246.6 233.08 246.18Z" fill="#505050"/></g></g><g><linearGradient x1="93.3651" y1="118.3" x2="93.3651" y2="144.32" gradientUnits="userSpaceOnUse" id="SVGID_3_" gradientTransform="matrix(1 0 0 -1 0 300)"><stop offset="0.2336" stop-color="#E6E6E6"/><stop offset="0.9511" stop-color="#FFFFFF"/></linearGradient><path d="M107.59 146.5 56.83 146.5 56.83 248.5 107.58 248.5 107.59 146.5 107.59 146.5Z" fill="#E6E6E6"/><path d="M105.9 155.68 79.15 155.68 107.58 181.7 107.58 157.36C107.59 156.43 106.83 155.68 105.9 155.68Z" fill="url(#SVGID_3_)"/><g><circle cx="82.69" cy="195.3" r="19.85" fill="#3097D8"/><g><path d="M81.8 201.95C80.72 202.46 79.49 202.71 78.1 202.71 77.11 202.71 76.21 202.54 75.4 202.19 74.59 201.84 73.9 201.36 73.33 200.74 72.76 200.12 72.32 199.39 72.01 198.53 71.7 197.67 71.55 196.75 71.55 195.74 71.55 194.68 71.71 193.69 72.04 192.78 72.37 191.87 72.84 191.07 73.45 190.4 74.06 189.73 74.8 189.2 75.67 188.81 76.54 188.42 77.51 188.23 78.59 188.23 79.78 188.23 80.85 188.41 81.78 188.78L81.78 190.17C80.78 189.67 79.71 189.42 78.57 189.42 77.67 189.42 76.86 189.58 76.16 189.89 75.46 190.2 74.86 190.64 74.38 191.19 73.9 191.74 73.53 192.4 73.28 193.16 73.03 193.92 72.9 194.75 72.9 195.65 72.9 196.46 73.01 197.22 73.24 197.93 73.47 198.64 73.8 199.27 74.25 199.8 74.7 200.33 75.25 200.76 75.92 201.07 76.59 201.38 77.36 201.54 78.23 201.54 79.58 201.54 80.76 201.26 81.78 200.69L81.78 201.95 81.8 201.95Z" fill="#FFFFFF"/><path d="M94.09 193.33 91.49 193.33 90.81 196.48 93.57 196.48 93.36 197.38 90.64 197.38 89.79 201.27 88.78 201.27 89.62 197.38 87.09 197.38 86.26 201.27 85.25 201.27 86.08 197.38 83.42 197.38 83.61 196.48 86.28 196.48 86.94 193.33 84.16 193.33 84.36 192.43 87.13 192.43 87.97 188.47 88.98 188.47 88.14 192.43 90.68 192.43 91.53 188.47 92.53 188.47 91.68 192.43 94.31 192.43 94.09 193.33ZM87.95 193.33 87.26 196.48 89.81 196.48 90.49 193.33 87.95 193.33Z" fill="#FFFFFF"/></g></g><path d="M107.59 156.52 107.59 148.78C107.59 147.52 106.57 146.5 105.31 146.5L59.11 146.5C57.85 146.5 56.83 147.52 56.83 148.78L56.83 156.52 107.59 156.52Z" fill="#8FC3EC"/><path d="M107.59 156.52 107.59 148.78C107.59 147.84 107.02 147.03 106.2 146.68 106.06 146.62 105.92 146.58 105.77 146.55 105.62 146.52 105.47 146.5 105.31 146.5L69.12 146.5 80.07 156.52 107.59 156.52 107.59 156.52Z" fill="#B5D5EA"/><g><path d="M103.31 138.01 61.51 138.01C58 138.01 55.16 140.85 55.16 144.36L55.16 248.51C55.16 252.02 58 254.86 61.51 254.86L103.3 254.86C106.81 254.86 109.65 252.02 109.65 248.51L109.65 144.36C109.66 140.85 106.81 138.01 103.31 138.01ZM107.31 244.6C107.31 246.13 106.07 247.37 104.54 247.37L60.47 247.37C58.94 247.37 57.7 246.13 57.7 244.6L57.7 150.15C57.7 148.62 58.94 147.38 60.47 147.38L104.54 147.38C106.07 147.38 107.31 148.62 107.31 150.15L107.31 244.6Z" fill="#444444"/><path d="M89.02 250.41 76.62 250.41C76.1 250.41 75.67 250.84 75.67 251.36L75.67 251.36C75.67 251.88 76.1 252.31 76.62 252.31L89.02 252.31C89.54 252.31 89.97 251.88 89.97 251.36L89.97 251.36C89.97 250.83 89.55 250.41 89.02 250.41Z" fill="#737373"/><path d="M89.02 141.05 76.62 141.05C76.1 141.05 75.67 141.48 75.67 142L75.67 142C75.67 142.52 76.1 142.95 76.62 142.95L89.02 142.95C89.54 142.95 89.97 142.52 89.97 142L89.97 142C89.97 141.47 89.55 141.05 89.02 141.05Z" fill="#737373"/><circle cx="65.16" cy="143.87" r="1.08" fill="#737373"/></g></g></g></svg>